# xmcd
#
# Track frame offsets:
#	150
#	13269
#	24952
#	38474
#	52505
#	65086
#	78523
#	90813
#	104001
#	115566
#	129530
#	144451
#	158834
#	170242
#	183859
#	195844
#	209337
#	221883
#	233424
#	246150
#	259387
#	272782
#	284796
#	297328
#	309243
#
# Disc length: 4270 seconds
#
# Revision: 3
# Processed by: cddbd v1.4PL0 Copyright (c) Steve Scherf et al.
# Submitted via: audiograbber 1.81.01
#
DISCID=6110ac19
DTITLE=Various Artist - Greatest Blues - Golden Greats
DYEAR=1900
DGENRE=Blues
TTITLE0=Big Joe Turner - Sally zu-zas
TTITLE1=B.B. King - Take a swing with me
TTITLE2=John Lee Hooker - Crawlin' king snake
TTITLE3=Muddy Waters - Roling stone
TTITLE4=Arthur 'Big Boy' Crudup - So glad you're mine
TTITLE5=Sonny Terry - Custard pie blues
TTITLE6=Lonnie Johnson - Nothing but trouble
TTITLE7=T-Bone Walker - I'm still in love with you
TTITLE8=Li'l Son Jackson - Ticket agent blues
TTITLE9=Jimmy Witherspoon - How long blues
TTITLE10=Champion Jack Dupree - I'm a doctor for women
TTITLE11=Leadbelly - T.B. blues
TTITLE12=McGhee and His Buddies - Venus
TTITLE13=Roosevelt Sykes - Raining in my heart
TTITLE14=Lightnin' Hopkins - Shotgun blues
TTITLE15=Amos Milburn - Walking Blues
TTITLE16=Sonny Boy Williamson - Shake the boogie
TTITLE17=Memphis Slim - Nobody loves me
TTITLE18=Lowell Fulson - Blue shadows
TTITLE19=John Lee Hooker - Hoogie boogie
TTITLE20=Muddy Waters - Rollin' and tumblin'
TTITLE21=Brownie McGhee - My fault
TTITLE22=Big Joe Turner - The chill is on
TTITLE23=Lowell Fulson - Why can't you cry for me?
TTITLE24=Fats Domino - Detroit City blues
EXTD=
EXTT0=
EXTT1=
EXTT2=
EXTT3=
EXTT4=
EXTT5=
EXTT6=
EXTT7=
EXTT8=
EXTT9=
EXTT10=
EXTT11=
EXTT12=
EXTT13=
EXTT14=
EXTT15=
EXTT16=
EXTT17=
EXTT18=
EXTT19=
EXTT20=
EXTT21=
EXTT22=
EXTT23=
EXTT24=
PLAYORDER=
